<svg width="16" height="26" viewBox="0 0 16 26" fill="none" xmlns="http://www.w3.org/2000/svg">
<path id="Vector" d="M12.8295 24.732L0.405552 13.5476C0.258087 13.4145 0.153387 13.2703 0.0914514 13.1149C0.0295161 12.9596 -0.00096006 12.7932 2.30415e-05 12.6156C2.30415e-05 12.4381 0.0309907 12.2717 0.0929261 12.1163C0.154862 11.961 0.25907 11.8167 0.405552 11.6836L12.8295 0.466012C13.1736 0.155337 13.6037 0 14.1198 0C14.6359 0 15.0783 0.166433 15.447 0.499299C15.8157 0.832165 16 1.22051 16 1.66433C16 2.10815 15.8157 2.4965 15.447 2.82936L4.60831 12.6156L15.447 22.4019C15.7911 22.7126 15.9631 23.0956 15.9631 23.5509C15.9631 24.0063 15.7788 24.4 15.4101 24.732C15.0415 25.0648 14.6114 25.2313 14.1198 25.2313C13.6283 25.2313 13.1982 25.0648 12.8295 24.732Z" fill="#FF6B00"/>
</svg>
